<svg fill="none" height="567" viewBox="0 0 341 567" width="341" xmlns="http://www.w3.org/2000/svg" xmlns:xlink="http://www.w3.org/1999/xlink"><mask id="a" height="314" maskUnits="userSpaceOnUse" width="170" x="202" y="-71"><path d="m211.186 242.748c-.195 0-.36 0-.494-.004l-7.998-43.617 8.358-.379c1.159-.017 28.686-.729 56.643-29.721 29.016-30.094 62.934-95.9923 59.719-239.0357l43.99-.9898c2.885 128.4933-21.926 220.1135-73.746 272.3135-39.455 39.748-79.93 41.433-86.472 41.433z" fill="#ff9dbe"/></mask><path d="m164.71 280.939 173.227 71.753c.893.371 1.657.998 2.195 1.802.537.804.824 1.75.824 2.718v144.109l-178.472-73.926v-144.968c0-.265.065-.526.19-.759.125-.234.305-.433.525-.58.221-.147.474-.237.737-.263.264-.026.529.013.774.114z" fill="#f4f3ed"/><path d="m340.802 501.702-178.472-73.926-.253-.379v-144.969c0-.332.082-.659.238-.953.157-.293.384-.543.66-.727.276-.185.594-.298.925-.331.33-.033.664.017.971.144l173.227 71.753c.97.4 1.799 1.079 2.382 1.951.583.873.893 1.899.891 2.948v144.109zm-177.903-74.58 177.65 73.585v-143.494c.001-.887-.261-1.754-.753-2.491-.493-.737-1.193-1.311-2.013-1.649l-173.227-71.752c-.182-.076-.38-.105-.576-.086s-.385.087-.549.196c-.164.11-.298.258-.391.432s-.142.368-.141.565z" fill="#7f7e84"/><path d="m296.308 357.293h-.822v126.065h.822z" fill="#7f7e84"/><path d="m162.513 304.036 178.007 73.917v-12.692l-178.007-73.917v13.784" fill="#f4f3ed"/><path d="m164.729 281.252 172.867 71.778c.866.36 1.605.968 2.126 1.749.52.781.798 1.699.798 2.638v8.992l-178.007-73.913v-9.76c0-.265.065-.525.189-.758.125-.233.304-.431.523-.578s.471-.237.733-.263c.263-.026.527.014.771.115z" fill="#e0ddd5"/><path d="m167.056 297.372c-.8-.323-1.343.065-1.34.933.004.389.102.771.285 1.114s.447.637.768.856l.328.26c.425.338.636.537.637.838s-.241.404-.633.245c-.229-.126-.424-.305-.568-.523s-.233-.467-.26-.727l-.675.062c.04.46.2.901.465 1.278.264.378.623.68 1.041.875.888.359 1.424-.04 1.42-.97-.007-.393-.11-.779-.301-1.123-.19-.344-.463-.636-.793-.85l-.333-.255c-.342-.266-.578-.486-.579-.814-.001-.274.193-.372.547-.229.208.098.387.25.517.44.13.191.206.413.22.643l.695.025c-.033-.444-.184-.87-.437-1.235-.254-.366-.6-.657-1.004-.843" fill="#7f7e84"/><path d="m170.039 303.019c-.132-.044-.248-.127-.333-.237-.084-.111-.134-.244-.141-.383-.001-.274.185-.357.471-.242.133.044.249.127.334.238.085.112.134.246.14.386.001.27-.182.354-.471.238zm-.006-3.157c-.519-.21-.981-.103-1.175.628l.617.626c.094-.305.27-.434.532-.328.159.068.293.185.38.335s.124.324.105.496l.001.301c-.143-.252-.368-.448-.637-.557-.669-.271-1.055.053-1.052.742-.014.331.075.659.253.939s.437.499.742.627c.335.136.596.093.755-.144l.002.357.683.276-.008-2.342c.019-.409-.085-.813-.299-1.162-.213-.349-.527-.625-.9-.794" fill="#7f7e84"/><path d="m172.418 299.631-.744-.3.014 3.874c-.031.295.029.592.171.853.141.26.359.471.623.605l.333.134-.004-.903-.181-.073c-.136-.055-.197-.18-.198-.381z" fill="#7f7e84"/><path d="m173.767 302.859c.064-.416.236-.554.512-.443.247.1.43.374.502.852zm.509-1.28c-.759-.307-1.285.282-1.28 1.434.004 1.173.545 2.173 1.335 2.492.553.223 1.015.002 1.203-.751l-.624-.566c-.124.419-.325.525-.618.406-.296-.119-.498-.436-.541-1.041l1.777.718c.004-.067.004-.16.004-.233-.004-1.159-.514-2.159-1.256-2.459" fill="#7f7e84"/><path d="m176.94 302.662c-.66-.267-1.082.012-1.08.7.007.311.093.616.249.885.155.27.377.495.643.657l.252.185c.292.218.418.348.419.535 0 .187-.159.229-.421.124-.18-.089-.334-.224-.446-.391s-.178-.361-.192-.561l-.588.042c.038.372.171.728.386 1.034s.505.551.843.713c.674.272 1.121-.021 1.118-.726-.008-.299-.089-.591-.236-.851-.146-.26-.354-.481-.604-.643l-.253-.188c-.313-.234-.473-.354-.474-.554-.001-.16.144-.222.387-.124.157.071.291.185.387.329.095.144.148.311.153.484l.61.018c-.022-.357-.141-.7-.345-.994-.203-.294-.482-.527-.808-.674" fill="#7f7e84"/><path d="m179.333 304.784-.005-1.373.572.231c.18.073.332.202.435.367s.151.358.137.552c.002.456-.213.597-.567.454zm.614-2.111-1.411-.57.018 5.013.788.318-.006-1.695.633.256c.856.346 1.334-.107 1.33-1.1.027-.464-.088-.925-.33-1.322-.241-.397-.598-.71-1.022-.9" fill="#7f7e84"/><path d="m182.843 308.014c-.21-.132-.379-.321-.485-.546-.107-.224-.147-.474-.117-.72-.002-.661.253-.914.595-.776.213.13.384.318.492.542.109.224.151.474.12.721.003.658-.258.919-.605.779zm-.01-2.979c-.786-.318-1.363.251-1.358 1.403.004 1.152.586 2.189 1.372 2.506.79.32 1.367-.249 1.363-1.401s-.587-2.189-1.377-2.508z" fill="#7f7e84"/><path d="m188.199 307.302-.781-.315-.384 2.038-.461-2.38-.665-.268-.44 2.032-.402-2.372-.79-.32.794 4.031.74.299.431-1.978.446 2.332.75.303z" fill="#7f7e84"/><path d="m189.057 309.035c.063-.416.235-.554.511-.442.247.1.43.374.502.852zm.508-1.28c-.759-.306-1.287.282-1.283 1.434.005 1.173.548 2.173 1.339 2.492.552.224 1.014.002 1.203-.75l-.625-.567c-.124.42-.325.525-.618.407-.296-.12-.498-.437-.541-1.041l1.777.718c.005-.067.004-.161.004-.233-.004-1.159-.516-2.161-1.256-2.46" fill="#7f7e84"/><path d="m192.7 309.022-.126-.051c-.262-.106-.487-.028-.633.331l-.002-.488-.739-.298.013 3.715.74.299-.007-1.934c-.002-.495.201-.668.472-.559l.286.116z" fill="#7f7e84"/><path d="m283.455 369.951c-.64-.259-.892.264-.96.765l.522.453c.042-.263.145-.559.441-.44.105.055.191.139.25.242.059.102.087.22.082.338-.001.098-.022.196-.063.286-.04.09-.099.171-.173.237l-.993 1.108.002.664 1.872.757-.003-.755-1.067-.431.63-.682c.136-.122.245-.273.318-.441s.11-.35.107-.534c.015-.327-.07-.652-.241-.932-.172-.279-.424-.501-.724-.635" fill="#7f7e84"/><path d="m285.832 374.228c-.349-.141-.472-.657-.475-1.463s.117-1.225.466-1.083c.349.141.474.658.477 1.464s-.119 1.223-.468 1.082zm-.012-3.321c-.63-.255-1.098.216-1.093 1.606.005 1.381.477 2.232 1.108 2.486.63.255 1.101-.215 1.096-1.595-.005-1.391-.481-2.243-1.111-2.497z" fill="#7f7e84"/><path d="m288.119 371.835c-.64-.258-.892.265-.961.766l.522.453c.043-.263.146-.56.442-.44.104.055.191.139.25.242.058.102.087.219.081.337 0 .099-.022.197-.062.287-.041.09-.1.17-.173.237l-.994 1.108.003.664 1.872.756-.003-.754-1.067-.431.63-.682c.136-.122.245-.273.319-.441.073-.168.109-.35.106-.534.014-.328-.07-.652-.242-.932-.172-.279-.424-.501-.723-.636" fill="#7f7e84"/><path d="m290.335 372.803-.987-.398.003.757.388.157.011 3.19.599.242z" fill="#7f7e84"/><path d="m169.914 322.463-2.285-.923.004.778.831.336.011 3.165.619.251-.012-3.166.834.337z" fill="#7f7e84"/><path d="m170.679 326.054c-.166-.103-.299-.252-.383-.429-.084-.176-.116-.373-.092-.568-.002-.519.2-.72.47-.611.167.102.302.25.388.427.085.177.118.374.095.569.001.519-.204.723-.478.612zm-.008-2.345c-.618-.25-1.072.196-1.069 1.105-.023.397.066.793.257 1.142s.476.637.823.832c.621.251 1.077-.197 1.074-1.104.023-.398-.066-.794-.258-1.144-.192-.349-.479-.637-.827-.831z" fill="#7f7e84"/><path d="m172.794 323.678-.586.195.002.536-.371-.15.003.647.371.15.004 1.197c-.029.278.026.557.158.803.133.246.336.446.583.574l.298.121-.002-.709-.223-.09c-.151-.061-.226-.226-.227-.496l-.004-1.163.448.182-.002-.647-.449-.182z" fill="#7f7e84"/><path d="m174.4 327.699c-.104-.034-.196-.099-.262-.187-.067-.087-.105-.192-.11-.302-.001-.214.144-.28.369-.189.105.035.197.1.263.187.067.088.106.193.112.303.001.214-.147.279-.372.188zm-.004-2.485c-.408-.165-.773-.081-.926.493l.486.493c.074-.239.212-.342.418-.259.126.054.231.146.299.264.069.118.098.255.084.391v.239c-.112-.199-.288-.354-.5-.441-.526-.212-.83.045-.828.585-.011.261.059.519.199.74s.344.394.585.495c.095.059.209.079.319.058.11-.022.207-.084.274-.174l.001.28.538.218-.007-1.841c.016-.322-.066-.641-.234-.916s-.415-.493-.708-.625" fill="#7f7e84"/><path d="m176.273 325.032-.585-.236.012 3.048c-.025.232.022.466.133.671.111.204.282.371.49.476l.262.106-.002-.709-.143-.058c-.107-.043-.156-.142-.156-.298z" fill="#7f7e84"/><path d="m178.229 327.68-.004-1.082.451.182c.142.057.261.158.342.287.081.13.119.281.109.434.001.359-.168.474-.447.362zm.486-1.662-1.111-.449.014 3.944.619.25-.005-1.335.499.201c.674.273 1.048-.08 1.046-.866.021-.364-.069-.726-.259-1.038s-.47-.559-.803-.707z" fill="#7f7e84"/><path d="m181.227 327.973-.099-.04c-.207-.083-.386-.021-.498.262l-.002-.384-.584-.236.011 2.923.584.236-.006-1.519c-.001-.391.156-.531.369-.445l.228.092z" fill="#7f7e84"/><path d="m182.408 330.793c-.165-.103-.298-.252-.382-.429-.084-.176-.115-.373-.091-.567-.002-.519.198-.721.468-.612.167.102.302.25.388.427.085.176.118.374.094.569.002.519-.203.723-.477.612zm-.008-2.345c-.618-.25-1.072.195-1.069 1.105-.023.397.066.793.257 1.142s.476.637.823.832c.623.251 1.077-.198 1.073-1.104.024-.398-.065-.795-.257-1.144-.192-.35-.479-.638-.827-.831z" fill="#7f7e84"/><path d="m184.945 328.464-.296-.119c-.465-.188-.735.107-.733.788v.007l-.31-.125.002.647.311.125.008 2.276.584.236-.008-2.276.449.181-.003-.647-.448-.181c.004-.254.078-.352.226-.292l.221.089z" fill="#7f7e84"/><path d="m185.773 329.889-.585-.236.011 2.924.584.236zm-.291-1.316c-.206-.083-.368.031-.366.336-.007.128.025.256.091.367s.163.2.279.256c.201.081.363-.023.362-.327.006-.13-.025-.258-.09-.37s-.16-.203-.276-.262" fill="#7f7e84"/><path d="m186.962 329.403-.585.196.002.536-.371-.15.002.647.371.15.004 1.197c-.029.277.027.557.159.803.132.245.335.445.582.574l.299.121-.003-.71-.223-.09c-.15-.061-.226-.226-.227-.496l-.004-1.162.448.181-.002-.647-.449-.181z" fill="#7f7e84"/><path d="m198.546 427.208-10.082-4.176v-43.058l10.082 4.123z" fill="#e0ddd5"/><path d="m218.812 435.598-10.082-4.176v-66.184l10.082 4.123z" fill="#e0ddd5"/><path d="m239.076 443.657-10.081-4.176v-54.341l10.081 4.122z" fill="#e0ddd5"/><path d="m259.346 452.274-10.081-4.176v-32.227l10.081 4.123z" fill="#e0ddd5"/><path d="m279.611 460.174-10.081-4.176v-19.576l10.081 4.123z" fill="#e0ddd5"/><path d="m300.348 385.602-.315.76 36.622 15.169.315-.76z" fill="#7f7e84"/><path d="m300.348 393.166-.315.76 18.048 7.476.315-.76z" fill="#e0ddd5"/><path d="m300.191 412.361 36.623 15.17v-7.361l-36.623-15.17z" fill="#e0ddd5"/><path d="m309.495 404.526-.314.759 15.466 6.406.315-.759z" fill="#e0ddd5"/><path d="m314.741 381.053-.314.76 9.45 3.915.315-.76z" fill="#e0ddd5"/><path d="m314.741 377.398-.314.759 15.466 6.406.314-.759z" fill="#e0ddd5"/><path d="m309.495 419.511-.314.76 15.466 6.406.315-.759z" fill="#e0ddd5"/><path d="m309.495 412.215-.314.759 15.466 6.407.315-.76z" fill="#f4f3ed"/><path d="m300.348 423.543-.315.759 18.048 7.476.315-.76z" fill="#e0ddd5"/><path d="m309.495 434.901-.314.76 15.466 6.406.315-.759z" fill="#e0ddd5"/><path d="m309.495 449.885-.314.76 15.466 6.406.315-.759z" fill="#e0ddd5"/><path d="m309.495 457.467-.314.76 15.466 6.406.315-.76z" fill="#e0ddd5"/><path d="m309.495 442.59-.314.76 15.466 6.406.315-.76z" fill="#e0ddd5"/><path d="m300.348 461.275-.315.759 18.048 7.476.315-.759z" fill="#e0ddd5"/><path d="m309.495 472.632-.314.76 15.466 6.406.315-.759z" fill="#e0ddd5"/><path d="m309.495 480.321-.314.759 15.466 6.406.315-.759z" fill="#e0ddd5"/><path d="m333.416 412.594v2.891l1.611-.75z" fill="#e0ddd5"/><path d="m333.416 428.509v2.89l1.611-.75z" fill="#e0ddd5"/><path d="m333.416 420.927v2.891l1.611-.751z" fill="#f4f3ed"/><path d="m173.576 415.826-.315.76 3.395 1.406.315-.759z" fill="#e0ddd5"/><path d="m173.576 405.101-.315.76 3.395 1.406.315-.76z" fill="#e0ddd5"/><path d="m173.576 394.378-.315.759 3.395 1.407.315-.76z" fill="#e0ddd5"/><path d="m173.576 383.655-.315.76 3.395 1.406.315-.76z" fill="#e0ddd5"/><path d="m173.576 372.93-.315.759 3.395 1.407.315-.76z" fill="#e0ddd5"/><path d="m174.253 361.752-.315.759 3.396 1.407.315-.76z" fill="#e0ddd5"/><path d="m174.253 351.026-.315.76 3.396 1.406.315-.759z" fill="#e0ddd5"/><path d="m174.253 340.304-.315.759 3.396 1.407.315-.76z" fill="#e0ddd5"/><path d="m290.111 473.173-121.655-50.391v-92.417l121.655 50.665zm-120.834-50.941 120.012 49.711v-90.366l-120.012-49.979z" fill="#e0ddd5"/><path d="m181.688 343.326h-.822v77.295h.822z" fill="#e0ddd5"/><path d="m193.917 428.508h-.822v4.204h.822z" fill="#e0ddd5"/><path d="m214.183 437.033h-.822v4.203h.822z" fill="#e0ddd5"/><path d="m234.446 445.453h-.821v4.203h.821z" fill="#e0ddd5"/><path d="m254.716 454.005h-.821v4.203h.821z" fill="#e0ddd5"/><path d="m274.979 461.878h-.822v4.204h.822z" fill="#e0ddd5"/><path d="m332.884 354.918c-.722-.292-1.306.305-1.302 1.336.003 1.034.593 2.105 1.316 2.397.722.292 1.306-.305 1.302-1.339-.003-1.031-.593-2.102-1.316-2.394z" fill="#7f7e84"/><path d="m336.715 359.425c-.243-.144-.444-.351-.58-.6-.136-.248-.204-.528-.195-.811-.002-.606.341-.958.767-.785.243.144.442.351.578.598.136.248.203.527.195.809.002.609-.34.961-.765.789zm-.01-2.964c-.725-.293-1.307.304-1.303 1.335.004 1.035.591 2.105 1.316 2.397.723.292 1.306-.304 1.303-1.339-.004-1.031-.594-2.101-1.316-2.393" fill="#7f7e84"/><path d="m162.64 303.66-.314.76 178.472 73.926.314-.76z" fill="#7f7e84"/><path d="m113.314 300.203 173.239 71.758c.894.371 1.658.998 2.196 1.802.537.805.824 1.75.824 2.718v144.12l-178.486-73.931v-144.979c0-.265.066-.526.191-.759.124-.234.305-.433.525-.58s.473-.238.737-.264c.263-.026.529.014.774.115z" fill="#abe3ff"/><path d="m289.983 521.219-179.308-74.272v-145.254c0-.332.082-.66.239-.953s.383-.543.66-.727c.276-.185.593-.299.924-.331.331-.033.665.016.972.144l173.24 71.758c.97.4 1.799 1.079 2.382 1.951.583.873.893 1.899.891 2.948zm-178.486-74.821 177.664 73.59v-143.505c.002-.887-.26-1.754-.753-2.491-.492-.737-1.193-1.311-2.013-1.648l-173.24-71.759c-.182-.075-.38-.105-.576-.085-.197.019-.385.086-.549.196-.164.109-.298.258-.391.432s-.142.368-.142.565z" fill="#29292f"/><path d="m244.916 376.564h-.822v126.075h.822z" fill="#29292f"/><path d="m111.087 323.307 178.486 73.932v-12.695l-178.486-73.931v13.786" fill="#29a9ff"/><path d="m113.308 300.544 173.333 71.797c.868.359 1.61.968 2.132 1.749.521.781.8 1.699.8 2.639v8.994l-178.486-73.932v-9.763c0-.264.065-.524.19-.757.124-.233.304-.432.524-.578.22-.147.472-.237.735-.263s.528.013.772.114z" fill="#005de5"/><g fill="#29292f"><path d="m115.654 316.644c-.8-.323-1.344.065-1.34.934.004.389.101.771.285 1.114.183.342.447.636.768.855l.327.261c.425.337.637.537.638.838.001.3-.241.403-.634.245-.228-.126-.423-.306-.567-.524-.144-.217-.234-.467-.26-.726l-.676.062c.041.459.201.9.465 1.278.265.378.624.68 1.042.875.887.358 1.423-.04 1.42-.971-.006-.393-.11-.779-.3-1.123-.191-.344-.464-.635-.794-.849l-.333-.255c-.342-.27-.578-.486-.579-.815-.001-.273.192-.371.546-.228.209.097.388.249.518.44.129.19.206.412.22.642l.695.025c-.033-.443-.184-.87-.438-1.235-.253-.365-.6-.656-1.003-.843"/><path d="m118.637 322.291c-.133-.044-.249-.127-.334-.238-.084-.111-.133-.246-.141-.385-.001-.27.186-.354.472-.238.132.043.249.126.334.237.085.11.135.244.142.384.001.273-.185.357-.473.24zm-.007-3.156c-.519-.21-.981-.103-1.174.627l.617.626c.093-.304.27-.433.532-.328.159.068.292.186.38.336.087.15.124.324.104.496l.001.301c-.142-.252-.366-.448-.633-.557-.672-.271-1.058.053-1.056.741-.013.332.076.66.254.94.179.28.438.499.744.628.333.134.594.091.753-.145l.001.356.686.277-.008-2.342c.019-.409-.086-.814-.3-1.162-.214-.349-.528-.626-.901-.794"/><path d="m121.016 318.903-.745-.3.015 3.874c-.031.295.028.592.17.853.142.26.36.471.624.605l.332.134-.003-.903-.182-.073c-.136-.055-.197-.18-.197-.381z"/><path d="m122.367 322.132c.064-.417.233-.555.51-.444.247.1.43.374.502.852zm.507-1.281c-.759-.307-1.285.282-1.281 1.434.005 1.173.546 2.173 1.336 2.492.553.223 1.017.003 1.203-.751l-.624-.566c-.125.419-.325.525-.619.406-.295-.119-.497-.436-.541-1.041l1.778.718c.004-.07.004-.16.003-.233-.004-1.159-.513-2.159-1.255-2.459"/><path d="m125.538 321.934c-.66-.266-1.08.013-1.078.701.007.311.092.615.247.885.156.269.377.495.643.656l.252.185c.294.219.42.349.421.536 0 .187-.162.229-.423.123-.181-.089-.335-.224-.447-.391-.111-.167-.178-.361-.191-.561l-.588.042c.037.372.17.728.386 1.034.215.306.505.552.843.713.674.272 1.12-.02 1.118-.73-.009-.297-.09-.589-.237-.848-.146-.26-.353-.48-.604-.642l-.25-.187c-.313-.234-.476-.355-.476-.555-.001-.159.146-.221.387-.124.157.072.291.186.387.329.096.144.15.312.155.485l.608.017c-.022-.356-.142-.7-.345-.994s-.483-.527-.808-.674"/><path d="m127.932 324.057-.005-1.373.575.232c.179.073.331.202.433.367.103.164.15.357.137.551.001.456-.214.597-.565.455zm.614-2.111-1.408-.569.018 5.013.786.317-.007-1.698.636.256c.856.346 1.331-.104 1.327-1.097.027-.464-.087-.925-.329-1.322-.241-.397-.598-.711-1.023-.9z"/><path d="m131.445 327.286c-.211-.132-.38-.321-.487-.545-.108-.225-.148-.475-.118-.722-.002-.661.253-.913.598-.774.212.129.383.317.492.541s.15.475.12.722c.002.657-.258.918-.605.778zm-.011-2.979c-.785-.317-1.362.251-1.358 1.403s.587 2.189 1.372 2.507c.791.319 1.367-.25 1.363-1.402s-.586-2.188-1.377-2.508z"/><path d="m136.796 326.577-.781-.316-.385 2.038-.461-2.38-.664-.268-.441 2.029-.401-2.369-.79-.32.794 4.032.74.298.431-1.978.444 2.332.752.304z"/><path d="m137.658 328.31c.064-.417.236-.555.512-.443.248.1.428.373.502.852zm.509-1.28c-.761-.308-1.287.281-1.283 1.433.005 1.173.546 2.172 1.339 2.493.552.223 1.014.002 1.203-.751l-.627-.568c-.122.421-.325.525-.616.408-.298-.121-.501-.437-.541-1.041l1.777.718c.005-.071.004-.161.004-.233-.004-1.159-.516-2.161-1.256-2.459"/><path d="m141.298 328.294-.126-.051c-.262-.106-.487-.027-.633.332l-.002-.488-.74-.299.014 3.716.739.298-.007-1.933c-.001-.495.199-.67.473-.559l.286.115z"/><path d="m216.866 383.058-.618-.25.01 2.633c.001.373-.134.533-.359.442-.103-.064-.189-.15-.253-.252-.065-.101-.105-.217-.118-.336l-.498.158c.04.261.141.51.295.725s.358.39.593.511c.57.23.961-.068.958-.964z"/><path d="m218.155 387.001c-.104-.034-.195-.1-.262-.187-.066-.087-.105-.192-.11-.302-.001-.215.144-.277.37-.186.104.034.196.099.262.185.067.087.106.192.112.302.001.214-.146.279-.372.188zm-.004-2.482c-.407-.165-.773-.084-.925.49l.486.496c.074-.239.211-.342.417-.259.126.054.231.147.3.265s.098.255.083.39l.001.236c-.113-.198-.289-.352-.501-.437-.526-.213-.83.041-.828.584-.01.261.059.518.199.739.14.22.344.392.585.493.262.106.468.072.593-.113l.001.28.538.218-.006-1.844c.015-.321-.067-.64-.235-.914s-.415-.492-.708-.624"/><path d="m220.571 385.499c-.048-.027-.101-.043-.156-.047s-.11.004-.162.024c-.051.02-.097.051-.135.091s-.067.087-.084.14l-.001-.35-.584-.236.01 2.927.585.236-.007-1.712c-.001-.374.151-.509.362-.424.107.066.193.162.248.276.054.114.075.241.06.366l.006 1.765.582.235-.007-1.91c.022-.274-.033-.549-.16-.794-.127-.244-.32-.447-.557-.587z"/><path d="m221.953 388.028c-.225-.091-.38.075-.379.396-.009.142.022.283.09.407.068.125.169.228.293.297.223.09.377-.079.376-.397.01-.141-.021-.282-.088-.406-.068-.125-.169-.228-.292-.297z"/><path d="m224.154 385.929c-.64-.258-.893.265-.961.766l.522.453c.043-.263.146-.56.442-.44.104.055.191.139.249.241.059.103.087.22.082.338 0 .099-.021.197-.062.287s-.1.17-.173.236l-.994 1.109.003.664 1.871.756-.002-.754-1.067-.431.629-.682c.137-.122.246-.273.319-.441.074-.168.11-.351.106-.534.015-.328-.069-.653-.241-.932-.172-.28-.424-.501-.723-.636"/><path d="m226.535 390.208c-.347-.14-.472-.657-.475-1.464-.003-.806.119-1.223.466-1.083.349.141.474.658.477 1.465.003.806-.119 1.223-.468 1.082zm-.012-3.321c-.628-.254-1.098.216-1.093 1.606.005 1.384.48 2.232 1.108 2.486.63.255 1.101-.211 1.096-1.595-.005-1.391-.48-2.243-1.111-2.498"/><path d="m228.273 390.582c-.225-.091-.38.075-.379.397-.003.12.02.24.067.35.048.111.119.21.209.29l-.215.61.342.346.254-.754c.067-.163.102-.338.102-.515.01-.144-.021-.288-.088-.415-.067-.128-.168-.235-.292-.309z"/><path d="m230.483 388.488c-.643-.26-.895.263-.963.764l.524.454c.043-.263.143-.561.442-.44.104.055.19.139.248.242.058.102.086.219.081.336 0 .099-.021.197-.062.287-.04.091-.1.171-.174.237l-.993 1.108.002.664 1.872.756-.003-.754-1.067-.431.632-.681c.136-.123.244-.274.317-.442s.109-.35.106-.534c.015-.327-.069-.652-.241-.931-.171-.279-.423-.501-.721-.636"/><path d="m232.863 392.764c-.349-.141-.475-.658-.478-1.464s.119-1.223.468-1.082c.35.141.473.657.476 1.463.002.806-.117 1.225-.466 1.083zm-.012-3.321c-.631-.254-1.101.215-1.096 1.606.005 1.384.48 2.232 1.11 2.487.631.255 1.099-.213 1.094-1.596-.005-1.391-.478-2.242-1.108-2.497z"/><path d="m235.149 390.373c-.642-.26-.892.264-.963.764l.525.454c.042-.263.143-.56.441-.44.105.055.191.139.25.242.058.102.087.219.081.338 0 .098-.021.196-.062.286-.04.09-.099.171-.173.237l-.993 1.108.002.664 1.869.756-.002-.755-1.067-.431.632-.681c.136-.122.245-.273.318-.441s.11-.35.107-.534c.014-.327-.07-.652-.242-.931-.172-.28-.424-.501-.723-.636z"/><path d="m237.325 391.251c-.64-.258-.892.265-.96.766l.522.453c.042-.263.146-.56.441-.44.105.055.191.139.25.242.059.102.087.219.082.337-.001.099-.022.197-.062.287-.041.09-.1.171-.174.237l-.993 1.108.002.664 1.872.756-.003-.754-1.066-.431.629-.682c.137-.122.246-.273.319-.441s.11-.35.106-.534c.015-.328-.069-.652-.241-.932-.172-.279-.424-.501-.724-.636"/><path d="m120.896 342.707-.618-.25.009 2.501-1.26-3.007-.58-.234.015 3.944.618.25-.009-2.501 1.262 3.007.577.234z"/><path d="m122.312 346.561c-.165-.104-.298-.253-.382-.429-.084-.177-.115-.373-.091-.567-.002-.519.198-.722.467-.613.168.102.303.251.388.427.086.177.119.375.095.57.002.519-.203.722-.477.612zm-.008-2.346c-.619-.25-1.072.196-1.069 1.106-.023.397.066.793.257 1.142.19.349.476.637.823.831.623.252 1.076-.197 1.073-1.103.024-.398-.065-.795-.257-1.145-.192-.349-.479-.637-.827-.831z"/><path d="m124.429 344.182-.585.199.002.536-.373-.151.002.647.373.151.005 1.197c-.03.278.025.557.157.803.133.246.336.446.584.574l.296.12-.003-.709-.221-.09c-.15-.06-.226-.226-.227-.495l-.004-1.163.446.18-.002-.647-.446-.18z"/><path d="m125.648 346.736c.052-.327.185-.436.403-.348.194.078.338.292.395.671zm.401-1.009c-.599-.242-1.011.22-1.008 1.13-.031.394.051.787.238 1.135.186.348.468.635.813.827.436.176.799.002.947-.592l-.491-.447c-.098.334-.258.415-.486.322-.235-.095-.393-.345-.426-.821l1.399.565c.002-.054.002-.127.002-.182-.004-.914-.406-1.702-.988-1.937z"/><path d="m128.379 349.011c-.274-.11-.464-.47-.466-.989-.002-.516.186-.73.46-.619.165.103.297.252.379.428.083.176.113.372.087.565.002.519-.186.726-.46.615zm.142-2.284c-.053-.028-.11-.045-.17-.05-.059-.005-.119.002-.175.021-.057.019-.109.049-.154.089-.044.039-.08.087-.106.141l-.001-.367-.582-.235.014 3.889.582.235-.005-1.342c.049.151.127.291.232.411s.232.218.376.287c.529.213.909-.303.906-1.171-.003-.869-.389-1.695-.917-1.908z"/><path d="m130.623 350.059c-.105-.034-.197-.099-.263-.187-.067-.087-.106-.193-.112-.303-.001-.214.147-.279.372-.188.105.035.196.1.263.187.067.088.106.193.112.303 0 .215-.147.279-.372.188zm-.007-2.486c-.407-.165-.77-.08-.923.494l.483.493c.075-.24.215-.342.421-.259.125.054.23.147.299.265s.098.255.083.39l.001.239c-.113-.198-.289-.353-.5-.44-.529-.214-.833.043-.831.583-.01.261.059.519.199.74s.344.393.585.496c.096.058.21.078.32.057.11-.022.208-.083.275-.173l.001.28.539.218-.007-1.841c.015-.322-.067-.641-.235-.916-.169-.275-.416-.493-.71-.626"/><path d="m132.905 350.839c-.165-.103-.296-.252-.379-.428s-.113-.372-.087-.565c-.002-.519.189-.725.46-.616.165.103.298.251.381.427.083.175.113.371.088.564.001.519-.189.729-.463.618zm1.028-2.866-.582-.235.005 1.391c-.049-.152-.128-.292-.233-.411-.105-.12-.233-.217-.377-.285-.526-.213-.907.304-.904 1.172s.389 1.694.915 1.907c.053.028.111.045.17.05.06.005.12-.002.177-.02.056-.019.109-.049.153-.089.045-.039.082-.088.107-.142l.002.371.581.235z"/><path d="m248.964 404.872-.315.76 36.626 15.171.314-.76z"/></g><path d="m248.964 412.441-.315.76 18.051 7.476.314-.76z" fill="#005de5"/><path d="m248.803 491.898 36.626 15.17v-7.361l-36.626-15.171z" fill="#005de5"/><path d="m258.112 423.8-.315.76 15.468 6.407.314-.76z" fill="#005de5"/><path d="m263.357 400.324-.315.759 9.452 3.915.314-.759z" fill="#005de5"/><path d="m263.357 396.668-.315.76 15.468 6.407.314-.76z" fill="#005de5"/><path d="m258.112 438.788-.315.759 15.468 6.407.314-.759z" fill="#005de5"/><path d="m258.112 431.491-.315.76 15.468 6.406.314-.759z" fill="#005de5"/><path d="m248.964 442.819-.315.759 18.051 7.477.314-.759z" fill="#005de5"/><path d="m258.112 454.176-.315.759 15.468 6.407.314-.759z" fill="#005de5"/><path d="m258.112 469.164-.315.759 15.468 6.407.314-.76z" fill="#005de5"/><path d="m258.112 476.746-.315.76 15.468 6.407.314-.76z" fill="#005de5"/><path d="m258.112 461.867-.315.76 15.468 6.407.314-.76z" fill="#005de5"/><path d="m248.964 480.554-.315.759 18.051 7.477.314-.76z" fill="#005de5"/><path d="m258.112 491.913-.315.759 15.468 6.407.314-.76z" fill="#abe3ff"/><path d="m258.112 499.6-.315.759 15.468 6.407.314-.76z" fill="#005de5"/><path d="m282.028 431.871v2.891l1.611-.75z" fill="#005de5"/><path d="m282.028 447.783v2.891l1.611-.751z" fill="#005de5"/><path d="m282.028 440.201v2.891l1.611-.75z" fill="#005de5"/><path d="m282.028 500.548v2.891l1.611-.75z" fill="#abe3ff"/><path d="m281.502 374.185c-.723-.292-1.307.308-1.303 1.339s.594 2.105 1.316 2.397c.723.292 1.307-.308 1.303-1.339s-.594-2.105-1.316-2.397z" fill="#29292f"/><path d="m285.328 378.695c-.243-.145-.442-.352-.578-.6s-.203-.528-.195-.811c-.002-.605.341-.96.765-.789.243.145.443.352.58.6.136.249.203.529.195.812.002.605-.34.961-.767.788zm-.011-2.968c-.722-.292-1.306.308-1.302 1.339.003 1.031.593 2.105 1.316 2.397.725.293 1.306-.308 1.302-1.339-.003-1.031-.591-2.104-1.316-2.397z" fill="#29292f"/><path d="m238.634 492.451-121.665-50.394v-92.424l121.665 50.669zm-120.843-50.944 120.021 49.714v-90.372l-120.021-49.983z" fill="#005de5"/><path d="m155.488 412.191-32.235-13.876v-39.091l32.235 13.875z" fill="#abe3ff"/><path d="m155.899 412.816-33.057-14.229v-39.986l33.057 14.228zm-32.235-14.77 31.413 13.522v-38.197l-31.413-13.522z" fill="#005de5"/><path d="m155.487 380.384-32.235-13.968v-7.192l32.235 13.968z" fill="#005de5"/><path d="m193.921 438.88-32.235-13.875v-49.545l32.235 13.875z" fill="#29a9ff"/><path d="m194.331 439.505-33.057-14.228v-50.441l33.057 14.23zm-32.235-14.77 31.413 13.521v-48.649l-31.413-13.522z" fill="#29a9ff"/><path d="m193.917 396.617-32.235-13.967v-7.192l32.235 13.967z" fill="#abe3ff"/><path d="m232.345 422.686-32.235-13.875v-17.115l32.235 13.876z" fill="#abe3ff"/><path d="m232.755 423.309-33.057-14.229v-18.009l33.057 14.229zm-32.235-14.77 31.413 13.521v-16.219l-31.413-13.521z" fill="#29a9ff"/><path d="m232.345 412.858-32.236-13.967v-7.193l32.236 13.968z" fill="#29a9ff"/><path d="m232.345 442.877-32.235-13.875v-17.115l32.235 13.876z" fill="#0078ef"/><path d="m232.755 443.502-33.057-14.229v-18.009l33.057 14.228zm-32.235-14.77 31.413 13.521v-16.219l-31.413-13.521z" fill="#0078ef"/><path d="m232.345 433.047-32.236-13.968v-7.192l32.236 13.968z" fill="#29a9ff"/><path d="m155.488 450.908-32.235-13.875v-35.844l32.235 13.875z" fill="#0078ef"/><path d="m155.899 451.532-33.057-14.229v-36.739l33.057 14.229zm-32.235-14.77 31.413 13.521v-34.949l-31.413-13.521z" fill="#0078ef"/><path d="m155.487 422.351-32.235-13.968v-7.192l32.235 13.968z" fill="#29a9ff"/><path d="m134.54 367.593-.315.76 18.05 7.477.315-.76z" fill="#abe3ff"/><path d="m130.731 366.976-4.561-1.976v-1.345l4.561 1.976z" fill="#abe3ff"/><path d="m134.54 409.463-.315.76 18.05 7.476.315-.76z" fill="#abe3ff"/><path d="m130.731 408.847-4.561-1.976v-1.345l4.561 1.976z" fill="#abe3ff"/><path d="m173.035 384.056-.314.759 18.05 7.477.314-.759z" fill="#29a9ff"/><path d="m169.226 383.438-4.56-1.976v-1.345l4.56 1.976z" fill="#29a9ff"/><path d="m211.468 399.9-.315.759 18.051 7.477.314-.76z" fill="#abe3ff"/><path d="m207.659 399.282-4.56-1.976v-1.345l4.56 1.976z" fill="#abe3ff"/><path d="m211.468 420.494-.315.76 18.051 7.476.314-.759z" fill="#abe3ff"/><path d="m207.659 419.875-4.56-1.975v-1.346l4.56 1.976z" fill="#abe3ff"/><path d="m111.248 322.929-.315.759 178.486 73.932.315-.759z" fill="#29292f"/><path d="m211.188 242.746c-.195 0-.36 0-.494-.004l-7.998-43.617 8.358-.378c1.159-.017 28.686-.729 56.643-29.722 29.016-30.094 62.934-95.9918 59.719-239.0352l43.99-.9898c2.885 128.4933-21.926 220.114-73.746 272.314-39.455 39.748-79.93 41.432-86.472 41.432z" fill="#ff9dbe"/><g mask="url(#a)"><path d="m209.91 214.283s9.026 13.461 19.909 14.294c14.81 1.134 44.525-7.83 67.84-27.262 0 0-34.955 50.516-77.239 52.705-25.006 1.295-14.128-30.479-10.51-39.737z" fill="#ff73a9"/></g><path d="m212.367 233.866c-.048 5.001-.859 8.3-2.358 8.498-1.454.193-3.256-2.573-4.916-7.092-1.584-4.518-2.762-9.168-3.521-13.896-.761-4.329-1.175-8.712-1.237-13.107-.014-5.363.8-8.936 2.363-9.144 1.426-.19 3.177 2.455 4.809 6.803 3.113 8.99 4.754 18.424 4.86 27.938z" fill="#f95396"/><path d="m209.861 242.784c-2.014 0-3.906-3.973-5.153-7.37-1.591-4.543-2.776-9.218-3.542-13.969-.765-4.352-1.181-8.757-1.242-13.175-.009-3.431.332-9.235 2.72-9.553 2.046-.272 3.982 3.694 5.247 7.066 1.65 4.632 2.872 9.406 3.65 14.261.805 4.565 1.218 9.19 1.237 13.826-.037 3.902-.539 8.614-2.716 8.901-.066.009-.134.013-.201.013zm-7.02-43.258c-.03 0-.059.002-.089.006-.935.125-2.022 2.487-2.006 8.736.061 4.372.472 8.733 1.231 13.039.757 4.702 1.929 9.328 3.502 13.824 1.917 5.216 3.571 6.949 4.476 6.825.889-.117 1.946-2.307 2.001-8.094v-.001c-.019-4.587-.429-9.163-1.226-13.68-.769-4.804-1.977-9.526-3.609-14.109-1.814-4.838-3.381-6.546-4.28-6.546z" fill="#29292f"/><path d="m152.876 244.644c.631-4.495 2.926-8.59 6.43-11.475.381-.315.777-.611 1.182-.895-13.32 2.435-17.697 10.108-17.918 10.511.037-.067.054-.103.054-.103l-.034-.017c-.832 1.527-2.212 2.682-3.861 3.234-1.649.551-3.446.458-5.03-.261-1.583-.72-2.835-2.012-3.505-3.616-.67-1.605-.708-3.404-.105-5.036.063-.171.137-.335.212-.499l-.024-.012c.374-.745 8.623-16.538 33.473-18.545-8.634-.653-17.216-1.862-25.694-3.619-1.787-.401-3.342-1.495-4.322-3.042-.981-1.547-1.307-3.42-.908-5.207.4-1.788 1.493-3.343 3.039-4.325s3.419-1.31 5.206-.912c.174.039 17.758 3.097 34.807 3.873s29.763-1.883 29.763-1.883c4.5 8.116 7.608 23.779 6.547 34.463 0 0-15.247-.003-16.125 9.713.129 2.383-.228 4.768-1.05 7.009-.971 2.627-2.562 4.98-4.639 6.858-2.077 1.879-4.577 3.228-7.288 3.931-1.771.471-3.657.219-5.242-.701-1.585-.919-2.74-2.431-3.21-4.202-.471-1.771-.218-3.657.701-5.242.92-1.585 2.431-2.74 4.203-3.21.876-.205 1.642-.734 2.144-1.481.501-.747.701-1.657.558-2.545-.362-3.026-3.743-4.976-8.827-5.097-5.799-.033-6.711 3.241-6.851 4.248-.164.875.021 1.781.516 2.522.494.741 1.26 1.258 2.131 1.442 1.767.488 3.268 1.657 4.172 3.25.905 1.594 1.14 3.482.652 5.248-.052.191-.112.377-.179.559-.601 1.624-1.789 2.963-3.329 3.753-1.54.789-3.321.972-4.989.512-4.101-1.087-7.657-3.645-9.992-7.186-2.335-3.542-3.285-7.819-2.668-12.015z" fill="#ffd5e1"/><path d="m181.312 265.433c-1.614-.002-3.182-.536-4.462-1.52-1.279-.984-2.199-2.362-2.615-3.922-.014-.051-.027-.104-.04-.156-.665 1.684-1.926 3.064-3.544 3.877s-3.478 1.001-5.226.529c-4.197-1.112-7.838-3.731-10.227-7.356-2.39-3.625-3.362-8.003-2.73-12.298.631-4.499 2.892-8.61 6.355-11.551-11.815 2.722-15.726 9.64-15.894 9.947l-.036-.02c-.903 1.595-2.373 2.792-4.118 3.352-1.745.561-3.637.444-5.3-.328-1.662-.771-2.974-2.14-3.673-3.834s-.735-3.589-.101-5.309c.02-.055.042-.11.065-.164l-.018-.01.16-.38c.324-.644 7.781-15.006 29.777-18.307-7.295-.686-14.546-1.778-21.72-3.271-1.892-.426-3.538-1.586-4.576-3.224-1.037-1.639-1.383-3.622-.959-5.515.423-1.892 1.58-3.54 3.216-4.58 1.637-1.041 3.62-1.389 5.513-.969.143.028 17.612 3.085 34.736 3.864 9.926.49 19.875-.139 29.66-1.875l.297-.062.147.265c4.617 8.325 7.637 24.217 6.596 34.702l-.037.37h-.372c-.149 0-14.85.112-15.713 9.312.226 4.099-.974 8.149-3.395 11.465-2.421 3.315-5.915 5.69-9.888 6.722-.613.163-1.244.246-1.878.246zm-7.988-23.533h.09c5.31.126 8.845 2.218 9.232 5.459.159.987-.063 1.998-.621 2.828s-1.409 1.417-2.383 1.644c-.827.217-1.602.596-2.282 1.114-.68.517-1.251 1.164-1.681 1.903-.429.739-.709 1.555-.823 2.402s-.059 1.708.16 2.534c.22.826.6 1.6 1.119 2.279s1.167 1.249 1.907 1.677c.739.428 1.556.706 2.403.818s1.708.055 2.534-.166c3.796-.984 7.134-3.254 9.444-6.423s3.451-7.041 3.227-10.956l-.001-.029.002-.03c.376-4.152 3.378-7.214 8.68-8.856 2.431-.724 4.945-1.136 7.48-1.224.914-10.237-1.972-25.423-6.388-33.598-9.758 1.694-19.673 2.308-29.566 1.833-11.689-.638-23.333-1.935-34.877-3.883-1.682-.375-3.444-.067-4.899.856-1.454.924-2.483 2.387-2.858 4.069-.376 1.681-.069 3.443.854 4.898.923 1.456 2.386 2.484 4.067 2.861 8.459 1.751 17.022 2.957 25.636 3.61l.001.82c-23.449 1.893-31.959 16.138-33.03 18.114l-.078.204c-.07.154-.141.309-.201.471-.566 1.534-.531 3.225.099 4.734.63 1.51 1.808 2.724 3.297 3.401 1.488.676 3.178.764 4.729.245s2.848-1.605 3.631-3.041l.191-.35.058.029c1.146-1.751 6.042-8.103 17.935-10.278l1.844-.336-1.533 1.077c-.438.308-.817.594-1.157.876-3.425 2.82-5.668 6.821-6.285 11.215-.602 4.097.326 8.273 2.605 11.731 2.28 3.458 5.753 5.956 9.757 7.017 1.569.425 3.24.249 4.687-.493 1.447-.741 2.565-1.996 3.137-3.518.063-.171.119-.347.169-.527.458-1.661.237-3.437-.614-4.935-.851-1.499-2.262-2.598-3.923-3.056-.969-.21-1.818-.788-2.368-1.612-.55-.825-.757-1.831-.578-2.806.151-1.083 1.118-4.602 7.171-4.602zm-.006.822c-5.386 0-6.223 2.977-6.351 3.893-.077.385-.077.782-.001 1.167.077.385.229.751.447 1.077s.499.606.826.824c.326.218.693.369 1.078.444 1.259.349 2.402 1.027 3.311 1.965.909.937 1.552 2.101 1.861 3.369.417-1.074 1.082-2.035 1.941-2.804.858-.769 1.887-1.324 3.001-1.621.779-.182 1.459-.652 1.905-1.317.445-.664.622-1.473.494-2.262-.335-2.805-3.565-4.62-8.428-4.735-.028 0-.056 0-.084 0z" fill="#29292f"/><path d="m171.721 218.674c-3.253-.401-6.539-.452-9.802-.153l-.104-.815c3.328-.315 6.681-.264 9.998.151z" fill="#29292f"/><path d="m160.714 232.619-.445-.691c.207-.133 5.132-3.258 10.951-2.674l-.082.818c-5.526-.555-10.376 2.516-10.424 2.547z" fill="#29292f"/><path d="m171.509 235.454c-2.888-15.992 1.985-24.791 2.194-25.158l.714.406c-.05.088-4.93 8.933-2.099 24.606z" fill="#29292f"/><path d="m122.731 199.271-.771-.284.894-2.426c.853-2.344 2.518-4.306 4.693-5.528 2.175-1.223 4.716-1.625 7.163-1.134l-.159.807c-2.255-.452-4.596-.081-6.601 1.045-2.004 1.127-3.539 2.934-4.325 5.095z" fill="#29292f"/><path d="m68.0567 215.015 173.2263 71.753c.894.37 1.658.997 2.196 1.802.537.804.824 1.75.824 2.717v144.109l-178.4724-73.925v-144.968c0-.265.0653-.526.1901-.759.1248-.234.3052-.433.5254-.58.2201-.147.4732-.238.7367-.264.2634-.026.5293.014.7739.115z" fill="#fff"/><path d="m244.149 435.777-178.4721-73.925-.2536-.38v-144.968c.0001-.332.082-.66.2387-.953s.3832-.543.6596-.727c.2763-.185.5939-.299.9247-.331.3307-.033.6644.017.9715.144l173.2272 71.752c.97.4 1.799 1.08 2.382 1.952s.893 1.899.891 2.948v144.109zm-177.9038-74.58 177.6508 73.585v-143.493c.002-.887-.26-1.754-.753-2.491-.492-.737-1.193-1.311-2.013-1.649l-173.227-71.753c-.1822-.075-.3802-.105-.5764-.085-.1962.019-.3846.086-.5485.196s-.2983.258-.3913.432c-.0929.174-.1416.368-.1416.565z" fill="#29292f"/><path d="m199.655 291.367h-.822v126.065h.822z" fill="#29292f"/><path d="m66.0088 238.121 178.1132 73.917v-12.692l-178.1132-73.917v13.783" fill="#ff9dbe"/><path d="m68.2255 215.39 172.9705 71.785c.866.36 1.606.968 2.127 1.749s.799 1.699.799 2.638v7.815l-178.1132-73.92v-8.583c0-.264.065-.524.1893-.757s.304-.432.5232-.579c.2192-.146.4712-.237.7335-.263.2624-.026.5271.014.7707.115z" fill="#f95396"/><path d="m70.4034 231.449c-.8002-.323-1.341.067-1.3379.931.0033.389.1008.772.2842 1.115s.4472.636.7688.855l.3279.264c.4225.333.6338.532.6349.833s-.2382.405-.631.246c-.2293-.126-.4247-.305-.5694-.523-.1446-.218-.2341-.468-.2608-.728l-.6728.067c.0404.459.2008.9.4653 1.278.2644.378.6235.679 1.0413.875.8849.357 1.421-.041 1.4176-.972-.0063-.393-.1092-.778-.2996-1.122-.1904-.343-.4624-.635-.7922-.849l-.3327-.259c-.3422-.266-.5804-.483-.5816-.812-.001-.273.1948-.374.5464-.231.2093.098.3884.25.5186.442.1301.191.2066.413.2214.644l.6926.021c-.0337-.443-.1851-.869-.4384-1.233-.2533-.365-.5994-.655-1.0025-.842" fill="#29292f"/><path d="m73.3889 237.094c-.133-.043-.2497-.126-.3349-.237-.0851-.11-.1346-.245-.1419-.384-.001-.273.1851-.354.4737-.237.1325.043.2487.126.3333.236.0847.111.1339.245.141.384.001.273-.1851.353-.4712.238zm-.0066-3.157c-.5189-.209-.9809-.102-1.1744.628l.6148.628c.0933-.304.2695-.433.5314-.327.1599.068.2936.185.3814.335.0877.15.1249.324.1059.497l.001.301c-.1438-.252-.3678-.448-.6363-.558-.6692-.27-1.0554.054-1.0529.739-.0134.332.0747.66.2527.941.1779.28.4373.5.7433.629.1211.075.2658.101.4053.073.1394-.027.2634-.107.3471-.221l.0013.359.6862.278-.0085-2.342c.0195-.41-.0842-.815-.2979-1.164-.2137-.35-.5274-.627-.9004-.796" fill="#29292f"/><path d="m75.7679 233.708-.7445-.3.0141 3.874c-.0307.295.0288.592.1707.853.1419.26.3594.471.6239.605l.3322.134-.0033-.903-.1818-.073c-.1359-.055-.1968-.18-.1975-.381z" fill="#29292f"/><path d="m77.1194 236.936c.0639-.416.2329-.555.5117-.443.245.099.4275.373.4995.852zm.5087-1.283c-.7614-.308-1.2871.281-1.2829 1.437.0043 1.172.5454 2.172 1.3359 2.491.5553.224 1.0168.003 1.2055-.75l-.6268-.571c-.1243.423-.3249.529-.6159.411-.2983-.12-.5004-.437-.5437-1.041l1.7798.719c.0046-.071.0042-.164.004-.234-.0042-1.162-.5163-2.164-1.2559-2.462" fill="#29292f"/><path d="m80.2874 236.734c-.6594-.266-1.0797.017-1.0772.705.0063.311.0912.614.2467.883s.3766.494.6425.654l.2525.189c.2939.219.4202.349.4209.536.0006.183-.1614.228-.4233.123-.1802-.089-.3338-.224-.4453-.391-.1116-.167-.1771-.36-.19-.56l-.5882.038c.0369.373.1691.729.384 1.036.2148.306.505.552.8425.714.6765.273 1.1209-.021 1.1183-.73-.0088-.297-.0897-.588-.2357-.848-.146-.259-.3527-.479-.6025-.641l-.2524-.188c-.3133-.234-.4734-.357-.4742-.558-.0005-.156.1445-.218.3845-.121.158.071.2928.184.3889.328s.1495.313.154.486l.6078.014c-.0225-.357-.1419-.701-.3451-.995-.2033-.294-.4829-.527-.8087-.674z" fill="#29292f"/><path d="m82.6799 238.863-.005-1.377.5746.232c.1793.074.3308.202.433.367.1023.165.1502.357.1369.551.0017.46-.2132.601-.5649.459zm.6146-2.111-1.4088-.569.0182 5.012.7856.318-.0061-1.699.6352.257c.856.346 1.3314-.105 1.3278-1.101.0271-.463-.0878-.924-.3294-1.32-.2415-.397-.5982-.71-1.0225-.898z" fill="#29292f"/><path d="m86.1932 242.093c-.2112-.132-.3804-.321-.4876-.546-.1072-.224-.148-.474-.1176-.721-.0024-.661.2534-.914.5978-.774.2127.129.3837.317.4922.541.1086.224.1503.474.12.721.0024.658-.2582.919-.6048.779zm-.0108-2.982c-.7856-.318-1.3624.251-1.3582 1.406.0042 1.152.5867 2.189 1.3723 2.506.7904.32 1.3646-.25 1.3604-1.402-.0042-1.155-.5842-2.191-1.3745-2.51" fill="#29292f"/><path d="m91.5485 241.377-.781-.316-.3846 2.042-.4618-2.383-.6645-.269-.4405 2.033-.4006-2.373-.7905-.319.7943 4.034.7394.299.4288-1.979.4469 2.333.7512.304z" fill="#29292f"/><path d="m92.4062 243.114c.0637-.417.2328-.556.5116-.443.2449.099.4274.373.4995.851zm.5085-1.284c-.7612-.307-1.287.282-1.2828 1.437.0042 1.173.5453 2.172 1.3358 2.492.5553.224 1.017.003 1.2055-.75l-.6268-.571c-.1243.423-.3249.529-.6159.411-.2982-.12-.5003-.437-.5436-1.042l1.7797.719c.0046-.07.0042-.164.004-.233-.0042-1.162-.5163-2.164-1.2559-2.463" fill="#29292f"/><path d="m96.0474 243.094-.1236-.049c-.262-.106-.4892-.025-.6331.331l-.0018-.488-.7396-.299.0135 3.719.7396.299-.007-1.934c-.0018-.494.1985-.673.47-.563l.2861.116z" fill="#29292f"/><path d="m186.808 304.029c-.642-.259-.894.264-.963.765l.525.454c.042-.266.143-.561.441-.44.105.054.191.137.25.239s.087.219.082.337c-.001.099-.022.197-.063.288-.041.09-.101.171-.175.237l-.991 1.106.002.664 1.87.756-.003-.755-1.067-.431.632-.677c.136-.124.243-.276.316-.444.073-.169.109-.352.107-.536.014-.326-.07-.65-.242-.929-.171-.278-.422-.499-.721-.634" fill="#29292f"/><path d="m189.185 308.303c-.349-.141-.475-.658-.477-1.464-.003-.806.119-1.223.468-1.082s.472.657.475 1.463-.117 1.224-.466 1.083zm-.012-3.318c-.63-.254-1.101.212-1.096 1.606.005 1.38.48 2.232 1.111 2.487.63.255 1.098-.216 1.093-1.596-.005-1.395-.478-2.242-1.108-2.497z" fill="#29292f"/><path d="m191.472 305.914c-.642-.26-.895.264-.963.765l.524.453c.043-.266.144-.56.442-.44.104.055.191.138.249.24.059.102.088.219.082.336 0 .1-.022.198-.063.289-.041.09-.1.171-.175.237l-.991 1.106.003.664 1.869.755-.002-.754-1.067-.431.632-.677c.135-.124.243-.276.316-.445s.109-.351.106-.535c.014-.327-.07-.65-.241-.929-.172-.279-.423-.499-.721-.634" fill="#29292f"/><path d="m193.69 306.882-.987-.399.003.755.388.156.011 3.19.599.242z" fill="#29292f"/><path d="m75.617 257.486-.6183-.25.0095 2.633c.0014.374-.1312.534-.359.442-.1024-.063-.1889-.149-.253-.251-.0642-.102-.1042-.217-.1172-.337l-.4982.158c.0393.262.1403.51.2948.725s.3579.39.5934.511c.5698.23.9609-.068.9577-.964z" fill="#29292f"/><path d="m76.9081 261.431c-.1047-.035-.1965-.1-.2634-.187-.0669-.088-.1057-.193-.1113-.303-.0008-.215.1443-.281.3722-.188.1042.034.1955.099.2619.186.0665.088.1049.193.1103.302.0008.215-.1442.281-.3697.19zm-.0066-2.487c-.4073-.164-.7727-.081-.9231.494l.4836.496c.0743-.239.2118-.343.418-.259.126.053.2314.146.3003.264.069.118.0978.255.0822.391l.0008.235c-.1126-.198-.2889-.352-.5003-.437-.5262-.212-.8303.041-.8284.581-.0105.261.0589.52.199.74.1401.221.3442.394.5851.496.2618.106.4675.071.5927-.117l.001.284.5408.219-.0067-1.844c.0148-.322-.0674-.642-.2358-.917-.1685-.275-.4155-.493-.7092-.626" fill="#29292f"/><path d="m79.3211 259.923c-.0482-.026-.1018-.042-.1568-.046-.0551-.003-.1102.005-.1615.025-.0513.021-.0975.052-.1353.092s-.0662.088-.0832.141l-.0012-.35-.5844-.236.0106 2.927.5844.236-.0062-1.712c-.0014-.374.1506-.509.3616-.424.1071.066.193.162.2474.276.0545.114.0753.241.06.366l.0064 1.765.582.235-.0069-1.913c.0218-.275-.0339-.55-.1606-.794s-.3195-.448-.5563-.588" fill="#29292f"/><path d="m82.213 261.17-.5869-.237.0062 1.702c.0014.394-.141.506-.3325.429-.1892-.077-.3329-.304-.3344-.699l-.0061-1.702-.5867-.237.0063 1.754c-.0194.33.0575.659.2215.946s.4079.52.702.671c.5238.212.9197-.095.9169-.873z" fill="#29292f"/><path d="m83.4588 264.078c-.1045-.034-.1961-.099-.263-.187-.0668-.087-.1058-.193-.1117-.303-.0008-.214.1468-.279.3722-.188.1042.035.1955.1.2619.187.0665.087.1049.193.1104.302.0007.215-.1443.28-.3698.189zm-.0066-2.486c-.4073-.165-.7702-.08-.9231.494l.4836.496c.0742-.239.2143-.342.4204-.258.1255.053.2303.146.2988.264s.097.254.0813.39l.0008.235c-.1125-.198-.2889-.352-.5003-.437-.5262-.212-.8303.041-.8284.581-.0101.261.0595.519.1995.74.1401.221.344.394.5846.496.262.105.4675.071.5928-.117l.0011.284.5406.218-.0067-1.843c.0148-.323-.0673-.642-.2358-.917s-.4155-.493-.7092-.626" fill="#29292f"/><path d="m85.9336 262.594-.0995-.04c-.2061-.083-.385-.017-.4978.262l-.0014-.384-.582-.235.0106 2.927.582.235-.0055-1.523c-.0014-.39.1555-.527.3688-.441l.228.092z" fill="#29292f"/><path d="m88.1723 263.577-.64-.258-.4533 1.299-.4054-1.646-.6692-.27.7847 2.742-.4453 1.277.6373.258z" fill="#29292f"/><path d="m191.149 341.978-13.076-5.416v-7.784l13.076 5.348z" fill="#f95396"/><path d="m191.149 351.526-13.076-5.416v-7.783l13.076 5.347z" fill="#f95396"/><path d="m173.781 379.158-13.076-5.416v-7.783l13.076 5.348z" fill="#f95396"/><path d="m156.644 346.68-13.076-5.416v-4.978l13.076 5.348z" fill="#f95396"/><path d="m156.644 354.014-13.076-5.416v-4.978l13.076 5.347z" fill="#f95396"/><path d="m203.695 319.676-.314.76 36.623 15.169.314-.759z" fill="#29292f"/><path d="m203.696 327.245-.315.759 18.049 7.477.314-.76z" fill="#f95396"/><path d="m203.54 376.736 36.622 15.17v-7.361l-36.622-15.17z" fill="#f95396"/><path d="m212.848 338.6-.315.76 15.466 6.406.315-.759z" fill="#f95396"/><path d="m218.088 315.127-.315.76 9.451 3.914.314-.76z" fill="#f95396"/><path d="m218.088 311.472-.315.759 15.466 6.407.315-.76z" fill="#f95396"/><path d="m212.848 353.587-.315.759 15.466 6.406.315-.759z" fill="#f95396"/><path d="m212.848 346.291-.315.759 15.466 6.407.315-.76z" fill="#f95396"/><path d="m203.696 357.618-.315.76 18.049 7.476.314-.76z" fill="#f95396"/><path d="m212.848 368.975-.315.759 15.466 6.406.315-.759z" fill="#f95396"/><path d="m212.848 383.963-.315.76 15.466 6.406.315-.76z" fill="#f95396"/><path d="m212.848 391.544-.315.759 15.466 6.406.315-.759z" fill="#f95396"/><path d="m212.848 376.666-.315.76 15.467 6.406.314-.759z" fill="#ffd5e1"/><path d="m203.696 395.349-.315.759 18.049 7.477.314-.76z" fill="#f95396"/><path d="m212.848 406.707-.315.76 15.466 6.406.315-.76z" fill="#f95396"/><path d="m212.848 414.396-.315.76 15.467 6.407.314-.76z" fill="#f95396"/><path d="m236.762 346.67v2.891l1.612-.751z" fill="#f95396"/><path d="m236.762 362.582v2.891l1.612-.75z" fill="#f95396"/><path d="m236.762 354.666v2.891l1.612-.75z" fill="#f95396"/><path d="m236.762 385.315v2.891l1.612-.751z" fill="#ffd5e1"/><path d="m236.237 288.994c-.725-.293-1.307.305-1.303 1.339.004 1.031.591 2.104 1.316 2.397.723.292 1.304-.309 1.3-1.34-.003-1.034-.591-2.104-1.313-2.396" fill="#29292f"/><path d="m240.063 293.5c-.243-.144-.443-.351-.579-.598-.136-.248-.204-.527-.196-.81-.002-.605.343-.96.767-.788.243.145.443.352.579.6s.204.528.196.811c.002.606-.343.957-.767.785zm-.011-2.965c-.722-.291-1.306.305-1.302 1.34.003 1.031.593 2.105 1.316 2.397.722.292 1.306-.308 1.302-1.339-.003-1.035-.593-2.106-1.316-2.398z" fill="#29292f"/><path d="m89.8897 272.267h-.8218v91.526h.8218z" fill="#ff9dbe"/><path d="m107.151 279.611h-.822v91.066h.822z" fill="#ff9dbe"/><path d="m124.415 286.496h-.822v91.534h.822z" fill="#ff9dbe"/><path d="m141.676 293.616h-.822v91.798h.822z" fill="#ff9dbe"/><path d="m158.937 300.968h-.822v91.656h.822z" fill="#ff9dbe"/><path d="m176.198 307.854h-.822v91.639h.822z" fill="#ff9dbe"/><path d="m72.3713 303.899-.3147.76 120.8094 50.041.314-.76z" fill="#ff9dbe"/><path d="m72.3713 321.532-.3147.76 120.8094 50.041.314-.76z" fill="#ff9dbe"/><path d="m72.3713 339.138-.3147.759 120.8094 50.042.314-.76z" fill="#ff9dbe"/><path d="m193.459 407.248-121.6558-50.391v-92.416l121.6558 50.664zm-120.8339-50.94 120.0119 49.71v-90.365l-120.0119-49.98z" fill="#f95396"/><path d="m192.961 328.604-120.7427-50.013v-13.535l120.8337 50.322z" fill="#f95396"/><path d="m89.8941 272.266h-.8218v91.526h.8218z" fill="#ffd5e1"/><path d="m107.155 279.611h-.822v91.066h.822z" fill="#ffd5e1"/><path d="m124.42 286.497h-.821v91.533h.821z" fill="#ffd5e1"/><path d="m141.681 293.616h-.822v91.798h.822z" fill="#ffd5e1"/><path d="m158.941 300.969h-.821v91.656h.821z" fill="#ffd5e1"/><path d="m176.203 307.853h-.822v91.639h.822z" fill="#ffd5e1"/><path d="m78.8963 273.369c-.4897-.198-.8205.041-.8186.571.0026.237.0624.47.1745.68.112.209.2729.389.469.523l.1991.16c.2599.205.3886.326.3892.509.0007.184-.1467.248-.3868.151-.1397-.077-.2587-.187-.3468-.32s-.1428-.285-.1595-.444l-.4115.038c.0249.28.1229.549.2843.78.1615.231.3806.415.6356.534.5432.22.8691-.021.8671-.592-.004-.24-.067-.475-.1834-.685-.1165-.21-.2828-.388-.4844-.518l-.2015-.157c-.2112-.165-.3545-.295-.3553-.496-.0006-.166.1178-.229.3337-.142.1278.06.2371.153.3164.269.0793.117.1256.253.1339.393l.4237.016c-.0202-.271-.1123-.531-.2667-.754-.1545-.224-.3657-.402-.612-.516z" fill="#29292f"/><path d="m81.434 275.245-.4558-.184.0048 1.322c.0011.304-.1074.392-.2554.332-.1479-.06-.2599-.236-.261-.541l-.0048-1.321-.4535-.184.0049 1.36c-.0153.256.0444.511.1716.733.1272.223.3165.404.5448.52.4049.164.7116-.075.7094-.677z" fill="#29292f"/><path d="m82.5823 275.646c-.0374-.02-.0788-.032-.1215-.035-.0426-.003-.0853.004-.125.019-.0398.016-.0756.04-.1048.071-.0293.031-.0514.068-.0647.109l-.0009-.27-.4535-.183.0082 2.269.4535.184-.0048-1.332c-.0011-.287.1171-.392.2821-.325.0827.051.1489.126.1909.214.0419.088.0578.186.0458.282l.005 1.37.4533.183-.0054-1.484c.0171-.213-.0262-.426-.125-.616-.0987-.189-.2488-.347-.4332-.456" fill="#29292f"/><path d="m97.7507 280.989-.4532-.184-.5969.951-.6182-1.441-.4559-.184.0111 3.065.4804.194-.0074-1.986.5469 1.261.0803.032.5368-.823.0074 1.986.4799.194z" fill="#29292f"/><path d="m98.8486 283.982c-.1282-.081-.2307-.196-.2955-.333s-.0892-.29-.0704-.44c-.0014-.401.1529-.56.3614-.476.1302.08.2349.195.3015.332s.0924.29.0742.442c.0015.401-.1578.561-.3712.475zm-.0066-1.82c-.4776-.193-.8299.152-.8273.858-.0185.308.0501.614.198.885.1479.27.369.494.6379.644.4851.196.8348-.149.8323-.855.0188-.309-.0503-.616-.1991-.887s-.3713-.495-.6418-.645z" fill="#29292f"/><path d="m100.778 282.944c-.037-.02-.079-.033-.121-.035-.043-.003-.086.003-.125.019-.04.016-.076.04-.105.071-.03.031-.052.068-.065.109l-.001-.273-.4533-.184.0083 2.273.453.183-.004-1.331c-.001-.288.117-.392.282-.325.082.051.149.125.191.213.041.088.057.186.045.283l.005 1.37.454.183-.006-1.484c.017-.213-.026-.426-.125-.616-.098-.19-.249-.348-.433-.456" fill="#29292f"/><path d="m115.432 288.432-1.772-.716.002.602.645.261.009 2.46.479.193-.009-2.459.648.262z" fill="#29292f"/><path d="m116.776 289.764-.456-.184.005 1.322c.001.304-.11.391-.258.331s-.258-.235-.259-.54l-.005-1.321-.455-.184.005 1.359c-.016.256.044.512.171.735s.317.404.545.522c.407.164.714-.074.712-.68l-.005-1.359" fill="#29292f"/><path d="m117.464 290.89c.037-.255.141-.34.311-.272.15.061.262.227.304.52zm.309-.784c-.465-.188-.786.173-.784.875-.024.306.04.612.185.883.145.27.364.493.632.642.337.137.62.002.734-.459l-.381-.348c-.077.259-.197.324-.377.252-.182-.074-.303-.268-.331-.638l1.086.438c.002-.043.002-.099.002-.144.026-.297-.031-.595-.167-.861-.135-.265-.343-.487-.599-.64" fill="#29292f"/><path d="m132.387 295.745-.49-.198-.356 1.832-.456-2.16-.422-.171-.443 1.801-.366-2.128-.5-.201.622 3.308.454.183.444-1.731.463 2.098.448.18z" fill="#29292f"/><path d="m132.82 297.557c.037-.255.141-.34.311-.272.15.061.262.23.307.521zm.309-.784c-.463-.187-.784.174-.781.88-.025.305.039.61.184.88.144.269.363.492.63.64.34.138.622.003.737-.458l-.384-.349c-.074.26-.197.324-.377.252-.179-.073-.303-.268-.329-.637l1.084.438c.004-.047.005-.094.004-.14.027-.298-.031-.597-.167-.864-.136-.266-.344-.489-.601-.642" fill="#29292f"/><path d="m134.891 299.302c-.129-.079-.231-.194-.296-.33-.064-.137-.088-.289-.068-.439-.001-.404.146-.563.359-.476.211.085.36.363.361.767.002.402-.145.563-.356.478zm.795-2.224-.453-.183.004 1.082c-.037-.118-.098-.227-.179-.32-.081-.094-.181-.169-.293-.223-.407-.164-.703.238-.701.912-.024.288.03.576.154.836.125.26.317.482.556.643.041.022.086.035.132.039s.092-.002.136-.016c.044-.015.085-.038.119-.069.035-.031.063-.068.082-.11l.001.287.454.183-.011-3.061" fill="#29292f"/><path d="m149.221 302.824-1.77-.716.002.603.645.26.009 2.46.48.194-.009-2.46.645.261z" fill="#29292f"/><path d="m149.858 303.082-.453-.184.011 3.062.453.183-.004-1.332c-.002-.287.117-.391.279-.325.084.051.15.125.193.213.042.088.058.187.046.284l.005 1.37.451.182-.005-1.484c.017-.213-.026-.426-.124-.615-.098-.19-.248-.348-.432-.456-.037-.021-.079-.033-.121-.036-.043-.002-.086.004-.126.02-.039.016-.075.04-.104.071-.03.031-.052.068-.065.109z" fill="#29292f"/><path d="m152.52 304.949-.456-.185.005 1.322c.001.304-.11.391-.255.332-.148-.06-.26-.236-.261-.541l-.005-1.321-.456-.184.005 1.359c-.015.256.045.512.173.734.127.223.317.404.546.52.405.164.711-.075.709-.677z" fill="#29292f"/><path d="m167.407 310.559-1.523-.616.011 3.062.48.194-.004-1.162.893.36-.003-.605-.892-.361-.003-.692 1.043.422z" fill="#29292f"/><path d="m168.488 311.722-.077-.031c-.161-.065-.298-.013-.387.203l-.001-.298-.451-.182.008 2.27.451.182-.004-1.18c-.001-.301.122-.41.289-.342l.175.07z" fill="#29292f"/><path d="m169.135 312.048-.453-.183.008 2.27.453.183zm-.226-1.02c-.161-.065-.286.022-.285.258-.006.099.019.199.07.284.051.086.127.155.217.198.158.064.283-.014.283-.252.004-.1-.02-.2-.071-.287-.05-.086-.125-.156-.214-.201z" fill="#29292f"/><path d="m183.155 317.17c-.49-.198-.82.042-.818.571.002.237.062.471.174.68.112.21.273.389.469.523l.199.16c.26.205.389.326.389.509.001.184-.146.249-.386.152-.14-.078-.259-.187-.347-.32s-.143-.286-.16-.445l-.409.039c.024.28.122.549.283.78.161.23.38.415.635.534.543.219.869-.022.867-.593-.004-.24-.067-.476-.184-.686-.116-.211-.282-.389-.484-.52l-.202-.154c-.211-.165-.354-.295-.355-.496 0-.169.118-.229.334-.141.128.059.237.152.316.269.079.116.126.252.134.393l.424.012c-.02-.27-.113-.53-.267-.753s-.366-.4-.612-.514" fill="#29292f"/><path d="m184.976 320.622c-.081-.026-.152-.077-.204-.145-.051-.067-.081-.149-.086-.234-.001-.166.113-.217.288-.146.081.026.151.077.203.145.052.067.082.149.086.234.001.166-.113.217-.287.146zm-.005-1.929c-.315-.127-.598-.062-.718.38l.377.387c.057-.187.166-.268.326-.203.097.042.178.114.231.206s.076.198.064.303l.001.184c-.087-.154-.223-.273-.387-.339-.409-.166-.646.032-.644.451-.009.202.045.403.154.574s.267.305.454.383c.204.083.364.057.46-.087l.001.218.419.17-.005-1.433c.012-.249-.052-.497-.182-.71-.131-.213-.323-.382-.551-.484" fill="#29292f"/><path d="m186.574 318.647-.455.151.002.415-.288-.116.001.505.289.117.003.927c-.023.215.02.433.123.624.102.191.26.347.452.448l.231.093-.002-.554-.172-.069c-.117-.047-.175-.175-.176-.386l-.003-.899.346.14-.001-.505-.347-.14z" fill="#29292f"/><path d="m65.9913 237.737-.3145.759 178.4722 73.926.315-.759z" fill="#29292f"/><path d="m3.06128 346.103 172.82572 71.755c.892.371 1.654.998 2.191 1.802.536.805.822 1.75.822 2.718v144.115l-178.059668-73.929v-144.974c0-.265.065148-.525.189668-.759.12452-.233.30457-.433.5242-.58.21964-.147.47208-.237.73496-.263s.52808.013.77212.115z" fill="#ffe9a4"/><path d="m178.768 566.865-178.472976-73.925-.2535201-.38v-144.968c.0000166-.333.0820021-.66.2386821-.953.156679-.293.383205-.543.659549-.728.276345-.184.593975-.298.924725-.33.33075-.033.66443.016.97148.144l173.22606 71.753c.971.399 1.8 1.078 2.383 1.951.583.872.893 1.898.891 2.948v144.109zm-177.904633-74.58 177.650633 73.586v-143.494c.002-.887-.26-1.754-.753-2.491s-1.193-1.311-2.013-1.649l-173.22691-71.753c-.18218-.076-.38013-.105-.57633-.085-.19621.019-.38462.086-.54854.196-.16392.109-.29831.258-.39125.432-.092952.173-.141572.368-.141603.565z" fill="#29292f"/><path d="m134.27 422.46h-.822v126.065h.822z" fill="#29292f"/><path d="m.892578 369.205 177.581422 73.917v-12.692l-177.581422-73.917v13.784" fill="#ffd074"/><path d="m2.99738 346.368 172.61262 71.726c.863.359 1.601.968 2.121 1.749.519.78.796 1.698.796 2.637v8.992l-177.633979-73.912-.1064-9.708c0-.264.064847-.524.188795-.757.123944-.233.303164-.431.521784-.578.21863-.147.46992-.237.73159-.263s.52567.013.76859.114z" fill="#ff9d33"/><path d="m5.02209 362.539c-.80022-.323-1.34116.067-1.33804.931.00331.389.10086.772.28428 1.115.18341.343.44723.636.76887.855l.32779.264c.42247.333.63626.533.63733.834.00109.301-.24066.404-.63347.245-.22935-.126-.4247-.305-.56931-.523-.1446-.218-.23411-.468-.2608-.728l-.67282.067c.0404.459.20084.9.46524 1.278s.62345.679 1.0412.875c.88507.357 1.42353-.04 1.42016-.971-.00683-.393-.11019-.778-.301-1.122s-.46325-.636-.79329-.85l-.3326-.259c-.34236-.266-.58041-.483-.58157-.812-.00099-.273.19475-.373.54875-.23.20896.098.38769.25.51745.441s.20577.414.22012.644l.69249.024c-.03282-.443-.18376-.87-.43711-1.235-.25336-.365-.59991-.656-1.00367-.843z" fill="#29292f"/><path d="m8.00735 368.184c-.13263-.043-.24905-.125-.33377-.236s-.13376-.245-.1406-.384c-.00097-.27.18276-.354.47125-.238.1322.044.24816.127.33279.237.08463.111.13402.244.1417.383.00099.274-.18527.354-.47137.238zm-.00656-3.156c-.51883-.21-.98096-.103-1.17443.627l.61493.629c.09571-.304.26953-.434.53144-.328.15987.068.29358.186.38134.336.08775.149.12489.324.10588.496l.00107.301c-.14348-.252-.36761-.448-.63632-.557-.66919-.271-1.0554.053-1.05292.738-.01309.332.07521.66.25311.941.17789.28.43697.5.74276.629.1215.075.26638.101.40611.073.13972-.027.26416-.106.3488-.22l.0013.36.68379.276-.00847-2.342c.01957-.409-.08423-.815-.29792-1.164s-.52739-.626-.90047-.795z" fill="#29292f"/><path d="m10.3894 364.8-.74682-.302.01403 3.875c-.03036.295.02932.592.17115.852.14182.26.35914.471.62334.605l.3323.135-.0033-.903-.1794-.073c-.1383-.056-.1968-.179-.1975-.38z" fill="#29292f"/><path d="m11.7381 368.026c.0639-.416.2352-.554.5117-.443.2473.1.4275.373.4994.852zm.5087-1.283c-.7614-.308-1.2871.281-1.2829 1.437.0042 1.172.5454 2.172 1.3359 2.491.5552.224 1.0168.003 1.2053-.75l-.6266-.567c-.1245.419-.3251.525-.6159.407-.2984-.12-.5004-.437-.5413-1.04l1.7772.718c.0046-.071.0043-.164.004-.234-.0042-1.162-.5163-2.164-1.2557-2.462" fill="#29292f"/><path d="m14.9086 367.83c-.6595-.267-1.0822.011-1.0797.7.0064.311.0916.615.2475.884.156.269.3776.494.6442.654l.2501.187c.2937.219.4202.35.4209.537.0006.186-.1614.228-.4234.122-.1799-.089-.3333-.223-.4448-.39s-.1773-.36-.1906-.561l-.5882.039c.0373.372.1697.729.3845 1.035.2148.307.5049.553.8422.714.6766.274 1.1234-.019 1.1209-.728-.0094-.298-.0908-.589-.2372-.848-.1464-.26-.3535-.48-.6035-.642l-.2526-.188c-.3132-.234-.4735-.358-.4742-.555-.0006-.159.1445-.221.3869-.123.1572.071.2912.185.3867.328.0956.144.1489.312.1538.484l.6078.014c-.0224-.355-.1414-.698-.3443-.992-.2029-.293-.4819-.525-.807-.671z" fill="#29292f"/><path d="m17.2986 369.953-.005-1.377.5746.232c.1795.074.3314.203.434.367.1027.165.151.358.1382.552.0017.46-.2156.6-.5672.458zm.6169-2.11-1.4111-.57.0181 5.013.7857.317-.0062-1.699.6353.257c.8559.346 1.3312-.105 1.3275-1.101.0273-.463-.0873-.923-.3284-1.319s-.5972-.71-1.0209-.898z" fill="#29292f"/><path d="m20.8117 373.183c-.2107-.132-.3795-.321-.4862-.545-.1068-.224-.1471-.474-.1163-.721-.0024-.661.2509-.914.5951-.775.2128.129.3837.317.4924.541.1086.224.1503.475.12.722.0024.657-.2582.918-.605.778zm-.0108-2.982c-.7856-.318-1.3622.251-1.358 1.406.0042 1.152.5866 2.189 1.3722 2.507.7905.319 1.3671-.25 1.3629-1.402-.0042-1.155-.5866-2.192-1.3771-2.511z" fill="#29292f"/><path d="m26.1676 372.468-.781-.316-.3846 2.042-.4612-2.384-.6645-.268-.4405 2.033-.4011-2.373-.7906-.319.7943 4.034.74.299.4309-1.978.4443 2.331.7517.304z" fill="#29292f"/><path d="m27.0252 374.204c.0639-.416.2353-.554.5117-.443.245.099.4275.373.4994.852zm.5087-1.283c-.7614-.308-1.2871.281-1.2829 1.437.0043 1.172.5454 2.172 1.3359 2.491.5553.224 1.0168.003 1.2054-.75l-.6267-.567c-.1245.419-.3249.525-.6159.407-.2982-.12-.5003-.437-.5413-1.041l1.7774.719c.0045-.071.0042-.165.0039-.234-.0042-1.162-.5162-2.163-1.2558-2.462" fill="#29292f"/><path d="m30.6694 374.186-.126-.051c-.2619-.106-.4893-.025-.6332.331l-.0018-.488-.7395-.299.0135 3.719.7395.299-.007-1.934c-.0018-.494.1985-.669.4702-.559l.2885.116-.0042-1.135" fill="#29292f"/><path d="m121.422 435.112c-.642-.259-.892.265-.963.765l.525.454c.042-.263.143-.561.441-.44.105.055.192.138.25.241.059.103.087.22.081.338-.001.099-.022.196-.063.286-.04.09-.099.171-.172.238l-.993 1.108.002.664 1.869.755-.002-.757-1.067-.431.632-.678c.135-.123.243-.274.316-.442.073-.169.109-.351.106-.534.015-.327-.069-.652-.24-.931-.172-.279-.423-.501-.722-.636" fill="#29292f"/><path d="m123.801 439.389c-.349-.141-.475-.658-.478-1.464-.003-.809.119-1.226.468-1.085.35.141.473.657.476 1.466.002.806-.117 1.224-.466 1.083zm-.012-3.321c-.631-.254-1.099.216-1.094 1.607.005 1.38.478 2.231 1.109 2.486.63.255 1.098-.216 1.093-1.597-.005-1.39-.478-2.241-1.108-2.496z" fill="#29292f"/><path d="m126.086 436.997c-.642-.259-.892.265-.963.765l.525.454c.042-.263.145-.56.441-.44.105.055.192.139.25.241.059.103.087.22.082.338-.002.099-.023.196-.064.286-.04.091-.099.171-.172.238l-.993 1.108.002.664 1.869.755-.002-.757-1.065-.43.63-.679c.136-.123.244-.273.317-.442.074-.168.11-.35.108-.533.014-.328-.07-.652-.242-.932-.172-.279-.424-.501-.723-.636" fill="#29292f"/><path d="m128.304 437.965-.987-.399.003.758.388.157.011 3.19.599.242z" fill="#29292f"/><path d="m7.87939 387.628-2.28173-.921.00266.774.83204.337.01117 3.169.61872.249-.01171-3.169.83151.336z" fill="#29292f"/><path d="m8.64876 391.218c-.16605-.103-.29904-.252-.38332-.429-.08427-.177-.11634-.374-.09241-.568-.00186-.515.20073-.717.46988-.608.16666.102.30054.25.38572.426.08519.175.11811.372.09485.566.00188.519-.20307.723-.47472.613zm-.00851-2.342c-.61829-.25-1.07185.196-1.06857 1.102-.02386.397.06482.793.2558 1.142.19099.349.47655.638.82391.832.62079.25 1.07433-.195 1.07104-1.105.02338-.397-.06579-.793-.25723-1.141-.19144-.349-.47736-.636-.82495-.83z" fill="#29292f"/><path d="m10.7654 388.841-.5853.198.0019.533-.37341-.151.00234.651.37347.151.0043 1.193c-.0294.278.0255.558.1576.805.1322.246.3355.447.5834.576l.2959.119-.0026-.709-.2206-.089c-.1504-.061-.226-.226-.227-.499l-.0042-1.159.4461.18-.0023-.651-.4461-.18z" fill="#29292f"/><path d="m12.368 392.862c-.1044-.035-.1961-.1-.2629-.187-.0668-.088-.1058-.193-.1117-.303-.0007-.211.1467-.276.3722-.185.104.034.1953.099.2622.186.0668.086.106.191.1125.3.0007.215-.1467.28-.3723.189zm-.0041-2.482c-.4098-.166-.7727-.085-.9255.493l.486.493c.0743-.239.2118-.343.418-.259.1255.054.2304.146.2993.264.0688.118.098.255.0832.391l.0008.239c-.113-.199-.2891-.354-.5003-.441-.5286-.213-.8303.041-.8283.585-.0107.26.0585.517.1982.737.1396.22.3432.393.5833.494.0954.058.2092.079.3192.059.1101-.021.2085-.082.2761-.171l.001.28.5382.218-.0067-1.844c.0149-.322-.067-.64-.235-.914-.1681-.274-.4145-.492-.7075-.624" fill="#29292f"/><path d="m14.244 390.198-.5868-.237.0111 3.048c-.024.232.023.466.1348.671.1119.205.2833.371.4916.477l.2619.105-.0026-.709-.1431-.058c-.1067-.043-.1555-.142-.1561-.301z" fill="#29292f"/><path d="m16.1977 392.844-.0038-1.083.451.182c.1416.059.2613.16.3422.29s.1188.282.1084.435c.0013.359-.1679.471-.4466.358zm.4832-1.66-1.1081-.448.0142 3.944.6183.25-.0048-1.335.4995.201c.674.273 1.048-.084 1.0452-.866.0214-.365-.069-.727-.2592-1.039-.1901-.312-.471-.559-.8051-.707z" fill="#29292f"/><path d="m19.1934 393.138-.0995-.04c-.2061-.083-.3826-.02-.4978.258l-.0014-.384-.582-.235.0106 2.927.582.235-.0055-1.522c-.0014-.388.1579-.527.3713-.441l.2255.091z" fill="#29292f"/><path d="m20.3779 395.957c-.1661-.104-.2991-.253-.3834-.429-.0843-.177-.1164-.374-.0925-.568-.0019-.516.2009-.717.47-.609.1671.103.3013.25.3869.426s.1189.373.096.568c.0019.519-.2055.721-.477.612zm-.0086-2.342c-.6182-.25-1.0719.195-1.0686 1.102-.0239.397.0648.793.2558 1.142s.4766.637.824.831c.6207.251 1.0743-.194 1.071-1.104.0234-.397-.0658-.793-.2572-1.142-.1914-.348-.4774-.636-.8249-.829" fill="#29292f"/><path d="m22.9141 393.627-.2982-.12c-.4631-.187-.7357.11-.7332.792v.003l-.308-.124.0024.65.3079.125.0083 2.276.5868.237-.0082-2.276.4486.181-.0024-.65-.4486-.182c.004-.25.0786-.348.2241-.289l.2231.09z" fill="#29292f"/><path d="m23.7386 395.051-.582-.235.0106 2.926.582.236zm-.2881-1.315c-.2061-.084-.3678.034-.3667.339-.0064.128.0254.255.0913.365.0658.111.1629.199.2789.254.2012.081.3631-.019.362-.324.0065-.129-.0246-.258-.0894-.371-.0648-.112-.1606-.204-.2761-.263" fill="#29292f"/><path d="m24.9332 394.566-.5851.199.0019.533-.3734-.151.0023.651.3735.15.0043 1.194c-.0295.278.0254.558.1576.805.1322.246.3355.447.5834.576l.2982.12-.0025-.709-.2231-.09c-.1503-.061-.226-.226-.227-.5l-.0042-1.159.4486.182-.0024-.651-.4486-.181z" fill="#29292f"/><path d="m36.5151 492.37-10.0815-4.176v-43.059l10.0815 4.124z" fill="#ff9d33"/><path d="m56.7807 500.761-10.0815-4.176v-66.183l10.0815 4.123z" fill="#ff9d33"/><path d="m77.0429 508.82-10.0815-4.176v-54.341l10.0815 4.124z" fill="#ff9d33"/><path d="m97.3085 517.437-10.0814-4.176v-32.227l10.0814 4.123z" fill="#ff9d33"/><path d="m117.575 525.337-10.082-4.176v-19.576l10.082 4.123z" fill="#ff9d33"/><path d="m138.319 450.764-.315.76 36.623 15.169.314-.759z" fill="#29292f"/><path d="m138.319 458.332-.315.76 18.049 7.476.314-.76z" fill="#ff9d33"/><path d="m138.158 477.527 36.622 15.17v-7.361l-36.622-15.17z" fill="#ff9d33"/><path d="m147.466 469.689-.315.76 15.466 6.406.315-.759z" fill="#ff9d33"/><path d="m152.712 446.214-.315.76 9.45 3.915.315-.76z" fill="#ff9d33"/><path d="m152.712 442.561-.315.76 15.466 6.406.315-.76z" fill="#ff9d33"/><path d="m147.466 484.676-.315.76 15.466 6.406.315-.76z" fill="#ff9d33"/><path d="m147.466 477.38-.315.759 15.466 6.407.315-.76z" fill="#ffe9a4"/><path d="m138.319 488.708-.315.759 18.049 7.477.314-.76z" fill="#ff9d33"/><path d="m147.466 500.063-.315.759 15.466 6.407.315-.76z" fill="#ff9d33"/><path d="m147.466 515.048-.315.76 15.466 6.406.315-.759z" fill="#ff9d33"/><path d="m147.466 522.634-.315.759 15.466 6.406.315-.759z" fill="#ff9d33"/><path d="m147.466 507.754-.315.759 15.466 6.406.315-.759z" fill="#ff9d33"/><path d="m138.319 526.439-.315.759 18.049 7.476.314-.759z" fill="#ff9d33"/><path d="m147.466 537.796-.315.759 15.466 6.407.315-.76z" fill="#ff9d33"/><path d="m147.466 545.486-.315.76 15.466 6.406.315-.76z" fill="#ff9d33"/><path d="m171.382 477.76v2.891l1.612-.751z" fill="#ff9d33"/><path d="m171.382 493.673v2.891l1.612-.75z" fill="#ff9d33"/><path d="m171.382 486.09v2.891l1.612-.75z" fill="#ffe9a4"/><path d="m11.5446 480.988-.3146.76 3.3956 1.406.3146-.76z" fill="#ff9d33"/><path d="m11.5446 470.265-.3146.759 3.3956 1.407.3146-.76z" fill="#ff9d33"/><path d="m11.5447 459.539-.3147.76 3.3956 1.407.3147-.76z" fill="#ff9d33"/><path d="m11.5446 448.814-.3146.76 3.3956 1.406.3146-.76z" fill="#ff9d33"/><path d="m11.5446 438.094-.3146.759 3.3956 1.407.3146-.76z" fill="#ff9d33"/><path d="m12.2224 426.919-.3147.76 3.3951 1.406.3147-.76z" fill="#ff9d33"/><path d="m12.2224 416.194-.3147.76 3.3951 1.406.3147-.76z" fill="#ff9d33"/><path d="m12.2224 405.469-.3147.76 3.3951 1.406.3147-.759z" fill="#ff9d33"/><path d="m127.815 545.074-121.65582-50.392v-92.416l121.65582 50.664zm-120.83399-50.941 120.01199 49.71v-90.365l-120.01199-49.98z" fill="#ff9d33"/><path d="m19.6534 408.491h-.8219v77.295h.8219z" fill="#ff9d33"/><path d="m31.8854 493.672h-.8219v4.204h.8219z" fill="#ff9d33"/><path d="m52.1515 502.194h-.8219v4.203h.8219z" fill="#ff9d33"/><path d="m72.4132 510.616h-.8219v4.204h.8219z" fill="#ff9d33"/><path d="m92.6788 519.168h-.8219v4.203h.8219z" fill="#ff9d33"/><path d="m112.944 527.045h-.821v4.203h.821z" fill="#ff9d33"/><path d="m170.856 420.081c-.725-.293-1.306.308-1.302 1.339.003 1.031.591 2.104 1.316 2.397.722.292 1.304-.309 1.3-1.34s-.591-2.105-1.314-2.397" fill="#29292f"/><path d="m174.683 424.587c-.243-.145-.443-.351-.579-.599s-.204-.527-.196-.809c-.002-.606.343-.96.767-.789.243.145.443.353.579.601s.204.528.196.811c.002.605-.343.956-.767.785zm-.011-2.965c-.722-.292-1.306.308-1.302 1.339.003 1.031.593 2.105 1.316 2.397.722.292 1.306-.308 1.302-1.339-.003-1.031-.593-2.105-1.316-2.397z" fill="#29292f"/><path d="m.29558 368.749-.000456.836 178.472876 73.926.314-.76z" fill="#29292f"/><path d="m168.504 243.5c-.491.344-.908.784-1.225 1.294-.317.509-.527 1.077-.618 1.67-.164.876.021 1.782.516 2.522.494.741 1.26 1.259 2.131 1.443 1.767.487 3.268 1.656 4.172 3.25.905 1.594 1.14 3.482.652 5.248-.052.191-.112.377-.179.559-.601 1.624-1.789 2.963-3.329 3.753-1.54.789-3.321.972-4.989.512-4.101-1.087-7.657-3.645-9.992-7.186-2.335-3.542-3.285-7.819-2.668-12.015" fill="#ffd5e1"/><path d="m167.445 264.406c-.649 0-1.294-.087-1.919-.26-4.197-1.113-7.838-3.731-10.227-7.356-2.39-3.625-3.362-8.003-2.731-12.299l.814.114c-.602 4.098.325 8.274 2.605 11.732s5.753 5.956 9.757 7.017c1.569.425 3.241.249 4.687-.493 1.447-.741 2.565-1.996 3.136-3.518.063-.171.119-.347.169-.526.227-.823.29-1.682.185-2.529-.106-.847-.376-1.665-.798-2.407-.421-.742-.984-1.394-1.658-1.919-.673-.524-1.443-.911-2.266-1.138-.969-.209-1.818-.787-2.368-1.612s-.757-1.831-.577-2.806c.1-.647.329-1.268.674-1.825.346-.557.8-1.038 1.336-1.415l.481.666c-.446.312-.825.711-1.113 1.173s-.48.977-.564 1.515c-.077.385-.078.781-.001 1.166.076.386.228.752.446 1.078s.499.606.826.824c.327.217.693.368 1.079.444.926.255 1.794.691 2.552 1.282.759.59 1.393 1.325 1.868 2.161s.78 1.757.898 2.711c.119.954.049 1.922-.207 2.849-.056.202-.119.399-.191.592-.526 1.403-1.468 2.612-2.7 3.466s-2.694 1.312-4.193 1.313z" fill="#29292f"/><path d="m66.2452 149.8h-.8219v50.859h.8219z" fill="#29292f"/><path d="m77.3932 178.603h-.8219v26.469h.8219z" fill="#29292f"/><path d="m243.47 217.926h-.822v57.155h.822z" fill="#29292f"/><path d="m218.342 242.714h-.821v21.287h.821z" fill="#29292f"/></svg>